<!DOCTYPE svg PUBLIC "-//W3C//DTD SVG 1.1//EN" "http://www.w3.org/Graphics/SVG/1.1/DTD/svg11.dtd">
<!-- Uploaded to: SVG Repo, www.svgrepo.com, Transformed by: SVG Repo Mixer Tools -->
<svg width="800px" height="800px" viewBox="0 0 24 24" fill="none" xmlns="http://www.w3.org/2000/svg">
<g id="SVGRepo_bgCarrier" stroke-width="0"/>
<g id="SVGRepo_tracerCarrier" stroke-linecap="round" stroke-linejoin="round"/>
<g id="SVGRepo_iconCarrier"> <g clip-path="url(#a)" fill="#e7b574"> <path d="M13.838 1.11a2.6 2.6 0 0 0-3.676 0l-1.98 1.98a2.6 2.6 0 0 0 0 3.677l1.98 1.98a2.6 2.6 0 0 0 3.676 0l1.98-1.98a2.6 2.6 0 0 0 0-3.677l-1.98-1.98ZM6.768 8.182a2.6 2.6 0 0 0-3.677 0l-1.98 1.98a2.6 2.6 0 0 0 0 3.676l1.98 1.98a2.6 2.6 0 0 0 3.676 0l1.98-1.98a2.6 2.6 0 0 0 0-3.676l-1.98-1.98ZM13.838 15.253a2.6 2.6 0 0 0-3.676 0l-1.98 1.98a2.6 2.6 0 0 0 0 3.677l1.98 1.98a2.6 2.6 0 0 0 3.676 0l1.98-1.98a2.6 2.6 0 0 0 0-3.677l-1.98-1.98ZM20.91 8.182a2.6 2.6 0 0 0-3.677 0l-1.98 1.98a2.6 2.6 0 0 0 0 3.676l1.98 1.98a2.6 2.6 0 0 0 3.677 0l1.98-1.98a2.6 2.6 0 0 0 0-3.676l-1.98-1.98Z"/> </g> <defs> <clipPath id="a"> <path fill="#e7b574" d="M0 0h24v24H0z"/> </clipPath> </defs> </g>
</svg>